<mxfile>
    <diagram id="lQh3B5VFjC5ZCFzVqh_3" name="Page-1">
        <mxGraphModel dx="1547" dy="1063" grid="1" gridSize="10" guides="1" tooltips="1" connect="1" arrows="1" fold="1" page="1" pageScale="1" pageWidth="827" pageHeight="1169" math="0" shadow="0">
            <root>
                <mxCell id="0"/>
                <mxCell id="1" parent="0"/>
                <mxCell id="10" value="" style="rounded=0;whiteSpace=wrap;html=1;" parent="1" vertex="1">
                    <mxGeometry x="99" y="125" width="630" height="380" as="geometry"/>
                </mxCell>
                <mxCell id="11" value="" style="rounded=0;whiteSpace=wrap;html=1;" parent="1" vertex="1">
                    <mxGeometry x="99" y="125" width="630" height="80" as="geometry"/>
                </mxCell>
                <mxCell id="12" value="&lt;font size=&quot;3&quot;&gt;ロゴ&lt;/font&gt;" style="rounded=0;whiteSpace=wrap;html=1;" parent="1" vertex="1">
                    <mxGeometry x="129" y="150" width="60" height="30" as="geometry"/>
                </mxCell>
                <mxCell id="13" value="&lt;font size=&quot;3&quot;&gt;シート&lt;/font&gt;" style="rounded=0;whiteSpace=wrap;html=1;" parent="1" vertex="1">
                    <mxGeometry x="500" y="150" width="60" height="30" as="geometry"/>
                </mxCell>
                <mxCell id="15" value="&lt;font size=&quot;3&quot;&gt;アイコン&lt;/font&gt;" style="rounded=0;whiteSpace=wrap;html=1;" parent="1" vertex="1">
                    <mxGeometry x="650" y="150" width="72" height="30" as="geometry"/>
                </mxCell>
                <mxCell id="16" value="" style="rounded=0;whiteSpace=wrap;html=1;" parent="1" vertex="1">
                    <mxGeometry x="134" y="340" width="560" height="135" as="geometry"/>
                </mxCell>
                <mxCell id="17" value="記入者" style="rounded=0;whiteSpace=wrap;html=1;fontSize=18;" parent="1" vertex="1">
                    <mxGeometry x="230" y="365" width="60" height="50" as="geometry"/>
                </mxCell>
                <mxCell id="18" value="カテゴリ" style="rounded=0;whiteSpace=wrap;html=1;fontSize=18;" parent="1" vertex="1">
                    <mxGeometry x="320" y="365" width="80" height="50" as="geometry"/>
                </mxCell>
                <mxCell id="20" value="料金" style="rounded=0;whiteSpace=wrap;html=1;fontSize=18;" parent="1" vertex="1">
                    <mxGeometry x="433" y="365" width="60" height="50" as="geometry"/>
                </mxCell>
                <mxCell id="21" value="編集" style="rounded=0;whiteSpace=wrap;html=1;fontSize=18;" parent="1" vertex="1">
                    <mxGeometry x="520" y="365" width="60" height="50" as="geometry"/>
                </mxCell>
                <mxCell id="22" value="削除" style="rounded=0;whiteSpace=wrap;html=1;fontSize=18;" parent="1" vertex="1">
                    <mxGeometry x="610" y="365" width="60" height="50" as="geometry"/>
                </mxCell>
                <mxCell id="23" value="予算" style="rounded=0;whiteSpace=wrap;html=1;fontSize=18;" parent="1" vertex="1">
                    <mxGeometry x="160" y="225" width="60" height="50" as="geometry"/>
                </mxCell>
                <mxCell id="24" value="カテゴリ別" style="rounded=0;whiteSpace=wrap;html=1;fontSize=18;" parent="1" vertex="1">
                    <mxGeometry x="280" y="225" width="100" height="50" as="geometry"/>
                </mxCell>
                <mxCell id="25" value="私" style="rounded=0;whiteSpace=wrap;html=1;fontSize=18;" parent="1" vertex="1">
                    <mxGeometry x="480" y="225" width="80" height="50" as="geometry"/>
                </mxCell>
                <mxCell id="26" value="妻" style="rounded=0;whiteSpace=wrap;html=1;fontSize=18;" parent="1" vertex="1">
                    <mxGeometry x="610" y="225" width="80" height="50" as="geometry"/>
                </mxCell>
                <mxCell id="27" value="だれでログインしているか" style="rounded=0;whiteSpace=wrap;html=1;" parent="1" vertex="1">
                    <mxGeometry x="788" y="135" width="180" height="60" as="geometry"/>
                </mxCell>
                <mxCell id="29" value="" style="endArrow=none;html=1;entryX=0;entryY=0.5;entryDx=0;entryDy=0;" parent="1" target="27" edge="1">
                    <mxGeometry width="50" height="50" relative="1" as="geometry">
                        <mxPoint x="722" y="165" as="sourcePoint"/>
                        <mxPoint x="568" y="485" as="targetPoint"/>
                    </mxGeometry>
                </mxCell>
                <mxCell id="30" value="誰でログインするか選択する&lt;br&gt;テストアカウントを用意" style="text;html=1;align=center;verticalAlign=middle;resizable=0;points=[];autosize=1;strokeColor=none;fontSize=18;" parent="1" vertex="1">
                    <mxGeometry x="25" y="60" width="250" height="50" as="geometry"/>
                </mxCell>
                <mxCell id="37" value="&lt;font size=&quot;3&quot;&gt;登録&lt;/font&gt;" style="rounded=0;whiteSpace=wrap;html=1;" vertex="1" parent="1">
                    <mxGeometry x="579" y="150" width="60" height="30" as="geometry"/>
                </mxCell>
                <mxCell id="39" value="" style="rounded=0;whiteSpace=wrap;html=1;" vertex="1" parent="1">
                    <mxGeometry x="92" y="580" width="630" height="380" as="geometry"/>
                </mxCell>
                <mxCell id="40" value="" style="rounded=0;whiteSpace=wrap;html=1;" vertex="1" parent="1">
                    <mxGeometry x="92" y="580" width="630" height="80" as="geometry"/>
                </mxCell>
                <mxCell id="41" value="&lt;font size=&quot;3&quot;&gt;ロゴ&lt;/font&gt;" style="rounded=0;whiteSpace=wrap;html=1;" vertex="1" parent="1">
                    <mxGeometry x="122" y="605" width="60" height="30" as="geometry"/>
                </mxCell>
                <mxCell id="42" value="&lt;font size=&quot;3&quot;&gt;シート&lt;/font&gt;" style="rounded=0;whiteSpace=wrap;html=1;" vertex="1" parent="1">
                    <mxGeometry x="493" y="605" width="60" height="30" as="geometry"/>
                </mxCell>
                <mxCell id="43" value="&lt;font size=&quot;3&quot;&gt;アイコン&lt;/font&gt;" style="rounded=0;whiteSpace=wrap;html=1;" vertex="1" parent="1">
                    <mxGeometry x="643" y="605" width="72" height="30" as="geometry"/>
                </mxCell>
                <mxCell id="54" value="&lt;font size=&quot;3&quot;&gt;登録&lt;/font&gt;" style="rounded=0;whiteSpace=wrap;html=1;" vertex="1" parent="1">
                    <mxGeometry x="572" y="605" width="60" height="30" as="geometry"/>
                </mxCell>
                <mxCell id="55" value="予算ごと分析" style="rounded=0;whiteSpace=wrap;html=1;fontSize=18;" vertex="1" parent="1">
                    <mxGeometry x="342" y="745" width="130" height="50" as="geometry"/>
                </mxCell>
                <mxCell id="56" value="&lt;span style=&quot;font-size: 16px&quot;&gt;6月&lt;/span&gt;" style="text;html=1;align=center;verticalAlign=middle;resizable=0;points=[];autosize=1;strokeColor=none;" vertex="1" parent="1">
                    <mxGeometry x="572" y="305" width="40" height="20" as="geometry"/>
                </mxCell>
                <mxCell id="57" value="&lt;span style=&quot;font-size: 16px&quot;&gt;filter&lt;/span&gt;" style="text;html=1;align=center;verticalAlign=middle;resizable=0;points=[];autosize=1;strokeColor=none;" vertex="1" parent="1">
                    <mxGeometry x="182" y="300" width="50" height="20" as="geometry"/>
                </mxCell>
                <mxCell id="59" value="記入日" style="rounded=0;whiteSpace=wrap;html=1;fontSize=18;" vertex="1" parent="1">
                    <mxGeometry x="150" y="365" width="60" height="50" as="geometry"/>
                </mxCell>
            </root>
        </mxGraphModel>
    </diagram>
</mxfile>